<svg width="1658" height="400" viewBox="0 0 1658 400" fill="none" xmlns="http://www.w3.org/2000/svg">
<g clip-path="url(#clip0)">
<path d="M200 400C310.412 400 399.918 310.494 399.918 200.082C399.918 89.6706 310.412 0.164276 200 0.164276C89.5885 0.164276 0.0821228 89.6706 0.0821228 200.082C0.0821228 310.494 89.5885 400 200 400Z" fill="#2A3332"/>
<path d="M58.4187 58.5006C136.419 -19.5002 262.925 -19.5002 340.926 58.5006C418.927 136.501 418.927 263.007 340.926 341.008" fill="#121C1B"/>
<path d="M200 285.948C247.423 285.948 285.866 247.505 285.866 200.082C285.866 152.659 247.423 114.215 200 114.215C152.577 114.215 114.134 152.659 114.134 200.082C114.134 247.505 152.577 285.948 200 285.948Z" fill="#F74D19"/>
<path d="M114.134 200.082C114.134 152.888 152.806 114.215 200 114.215C247.194 114.215 285.866 152.888 285.866 200.082" fill="#FF7A17"/>
<path d="M215.731 187.628L185.58 217.78L242.605 274.805C249.16 270.873 255.059 266.284 260.959 261.041C265.547 256.452 270.135 250.553 273.413 245.309L215.731 187.628Z" fill="#E0360E"/>
<path d="M200 224.334C213.394 224.334 224.252 213.476 224.252 200.082C224.252 186.688 213.394 175.83 200 175.83C186.606 175.83 175.748 186.688 175.748 200.082C175.748 213.476 186.606 224.334 200 224.334Z" fill="#D3DEE2"/>
<path d="M200 224.334C186.891 224.334 175.748 213.191 175.748 200.082C175.748 186.973 186.235 175.83 200 175.83" fill="#EBF0F2"/>
<path d="M200 367.227C107.579 367.227 32.8554 292.503 32.8554 200.082C32.8554 196.805 35.4773 193.527 39.4101 193.527C42.6874 193.527 45.9648 196.149 45.9648 200.082C45.3093 285.293 114.789 354.773 200 354.773C203.277 354.773 206.555 357.395 206.555 361.327C206.555 364.605 203.277 367.227 200 367.227Z" fill="#726C6A"/>
<path d="M361.245 206.637C357.968 206.637 354.691 204.015 354.691 200.082C354.691 114.871 285.211 45.3912 200 45.3912C196.723 45.3912 193.445 42.7694 193.445 38.8366C193.445 35.5592 196.067 32.2819 200 32.2819C292.421 32.2819 367.145 107.661 367.145 199.426C367.145 203.359 364.523 206.637 361.245 206.637Z" fill="#726C6A"/>
<path d="M200 328.554C129.209 328.554 71.528 270.873 71.528 200.082C71.528 196.805 74.1499 193.527 78.0827 193.527C81.3601 193.527 84.6374 196.149 84.6374 200.082C84.6374 263.662 136.419 316.1 200.655 316.1C203.933 316.1 207.21 318.722 207.21 322.655C206.555 325.932 203.277 328.554 200 328.554Z" fill="#726C6A"/>
<path d="M321.917 206.637C318.64 206.637 315.363 204.015 315.363 200.082C315.363 136.501 263.581 84.0639 199.345 84.0639C196.067 84.0639 192.79 81.442 192.79 77.5092C192.79 74.2319 195.412 70.9545 199.345 70.9545C270.135 70.9545 327.816 128.636 327.816 199.426C328.472 203.359 325.85 206.637 321.917 206.637Z" fill="#726C6A"/>
</g>
<path d="M508.25 136.58C523.79 136.58 537.37 139.66 548.99 145.82C560.61 151.98 569.57 160.66 575.87 171.86C582.31 182.92 585.53 195.73 585.53 210.29C585.53 224.71 582.31 237.52 575.87 248.72C569.57 259.92 560.54 268.6 548.78 274.76C537.16 280.92 523.65 284 508.25 284H453.02V136.58H508.25ZM505.94 252.92C519.52 252.92 530.09 249.21 537.65 241.79C545.21 234.37 548.99 223.87 548.99 210.29C548.99 196.71 545.21 186.14 537.65 178.58C530.09 171.02 519.52 167.24 505.94 167.24H488.93V252.92H505.94ZM623.658 154.64C617.358 154.64 612.178 152.82 608.118 149.18C604.198 145.4 602.238 140.78 602.238 135.32C602.238 129.72 604.198 125.1 608.118 121.46C612.178 117.68 617.358 115.79 623.658 115.79C629.818 115.79 634.858 117.68 638.778 121.46C642.838 125.1 644.868 129.72 644.868 135.32C644.868 140.78 642.838 145.4 638.778 149.18C634.858 152.82 629.818 154.64 623.658 154.64ZM641.508 166.82V284H605.598V166.82H641.508ZM715.202 285.68C704.982 285.68 695.882 283.93 687.902 280.43C679.922 276.93 673.622 272.17 669.002 266.15C664.382 259.99 661.792 253.13 661.232 245.57H696.722C697.142 249.63 699.032 252.92 702.392 255.44C705.752 257.96 709.882 259.22 714.782 259.22C719.262 259.22 722.692 258.38 725.072 256.7C727.592 254.88 728.852 252.57 728.852 249.77C728.852 246.41 727.102 243.96 723.602 242.42C720.102 240.74 714.432 238.92 706.592 236.96C698.192 235 691.192 232.97 685.592 230.87C679.992 228.63 675.162 225.2 671.102 220.58C667.042 215.82 665.012 209.45 665.012 201.47C665.012 194.75 666.832 188.66 670.472 183.2C674.252 177.6 679.712 173.19 686.852 169.97C694.132 166.75 702.742 165.14 712.682 165.14C727.382 165.14 738.932 168.78 747.332 176.06C755.872 183.34 760.772 193 762.032 205.04H728.852C728.292 200.98 726.472 197.76 723.392 195.38C720.452 193 716.532 191.81 711.632 191.81C707.432 191.81 704.212 192.65 701.972 194.33C699.732 195.87 698.612 198.04 698.612 200.84C698.612 204.2 700.362 206.72 703.862 208.4C707.502 210.08 713.102 211.76 720.662 213.44C729.342 215.68 736.412 217.92 741.872 220.16C747.332 222.26 752.092 225.76 756.152 230.66C760.352 235.42 762.522 241.86 762.662 249.98C762.662 256.84 760.702 263 756.782 268.46C753.002 273.78 747.472 277.98 740.192 281.06C733.052 284.14 724.722 285.68 715.202 285.68ZM777.491 225.41C777.491 213.23 779.941 202.59 784.841 193.49C789.881 184.39 796.811 177.39 805.631 172.49C814.591 167.59 824.811 165.14 836.291 165.14C850.991 165.14 863.241 168.99 873.041 176.69C882.981 184.39 889.491 195.24 892.571 209.24H854.351C851.131 200.28 844.901 195.8 835.661 195.8C829.081 195.8 823.831 198.39 819.911 203.57C815.991 208.61 814.031 215.89 814.031 225.41C814.031 234.93 815.991 242.28 819.911 247.46C823.831 252.5 829.081 255.02 835.661 255.02C844.901 255.02 851.131 250.54 854.351 241.58H892.571C889.491 255.3 882.981 266.08 873.041 273.92C863.101 281.76 850.851 285.68 836.291 285.68C824.811 285.68 814.591 283.23 805.631 278.33C796.811 273.43 789.881 266.43 784.841 257.33C779.941 248.23 777.491 237.59 777.491 225.41ZM965.12 285.68C953.64 285.68 943.28 283.23 934.04 278.33C924.94 273.43 917.73 266.43 912.41 257.33C907.23 248.23 904.64 237.59 904.64 225.41C904.64 213.37 907.3 202.8 912.62 193.7C917.94 184.46 925.22 177.39 934.46 172.49C943.7 167.59 954.06 165.14 965.54 165.14C977.02 165.14 987.38 167.59 996.62 172.49C1005.86 177.39 1013.14 184.46 1018.46 193.7C1023.78 202.8 1026.44 213.37 1026.44 225.41C1026.44 237.45 1023.71 248.09 1018.25 257.33C1012.93 266.43 1005.58 273.43 996.2 278.33C986.96 283.23 976.6 285.68 965.12 285.68ZM965.12 254.6C971.98 254.6 977.79 252.08 982.55 247.04C987.45 242 989.9 234.79 989.9 225.41C989.9 216.03 987.52 208.82 982.76 203.78C978.14 198.74 972.4 196.22 965.54 196.22C958.54 196.22 952.73 198.74 948.11 203.78C943.49 208.68 941.18 215.89 941.18 225.41C941.18 234.79 943.42 242 947.9 247.04C952.52 252.08 958.26 254.6 965.12 254.6ZM1248.35 136.58L1209.92 284H1166.45L1142.93 186.98L1118.57 284H1075.1L1037.72 136.58H1076.15L1097.36 243.89L1123.61 136.58H1163.09L1188.29 243.89L1209.71 136.58H1248.35ZM1259.22 225.2C1259.22 213.16 1261.46 202.59 1265.94 193.49C1270.56 184.39 1276.79 177.39 1284.63 172.49C1292.47 167.59 1301.22 165.14 1310.88 165.14C1319.14 165.14 1326.35 166.82 1332.51 170.18C1338.81 173.54 1343.64 177.95 1347 183.41V166.82H1382.91V284H1347V267.41C1343.5 272.87 1338.6 277.28 1332.3 280.64C1326.14 284 1318.93 285.68 1310.67 285.68C1301.15 285.68 1292.47 283.23 1284.63 278.33C1276.79 273.29 1270.56 266.22 1265.94 257.12C1261.46 247.88 1259.22 237.24 1259.22 225.2ZM1347 225.41C1347 216.45 1344.48 209.38 1339.44 204.2C1334.54 199.02 1328.52 196.43 1321.38 196.43C1314.24 196.43 1308.15 199.02 1303.11 204.2C1298.21 209.24 1295.76 216.24 1295.76 225.2C1295.76 234.16 1298.21 241.3 1303.11 246.62C1308.15 251.8 1314.24 254.39 1321.38 254.39C1328.52 254.39 1334.54 251.8 1339.44 246.62C1344.48 241.44 1347 234.37 1347 225.41ZM1461.6 250.4L1487.01 166.82H1525.23L1483.65 284H1439.34L1397.76 166.82H1436.19L1461.6 250.4ZM1650.8 223.52C1650.8 226.88 1650.59 230.38 1650.17 234.02H1568.9C1569.46 241.3 1571.77 246.9 1575.83 250.82C1580.03 254.6 1585.14 256.49 1591.16 256.49C1600.12 256.49 1606.35 252.71 1609.85 245.15H1648.07C1646.11 252.85 1642.54 259.78 1637.36 265.94C1632.32 272.1 1625.95 276.93 1618.25 280.43C1610.55 283.93 1601.94 285.68 1592.42 285.68C1580.94 285.68 1570.72 283.23 1561.76 278.33C1552.8 273.43 1545.8 266.43 1540.76 257.33C1535.72 248.23 1533.2 237.59 1533.2 225.41C1533.2 213.23 1535.65 202.59 1540.55 193.49C1545.59 184.39 1552.59 177.39 1561.55 172.49C1570.51 167.59 1580.8 165.14 1592.42 165.14C1603.76 165.14 1613.84 167.52 1622.66 172.28C1631.48 177.04 1638.34 183.83 1643.24 192.65C1648.28 201.47 1650.8 211.76 1650.8 223.52ZM1614.05 214.07C1614.05 207.91 1611.95 203.01 1607.75 199.37C1603.55 195.73 1598.3 193.91 1592 193.91C1585.98 193.91 1580.87 195.66 1576.67 199.16C1572.61 202.66 1570.09 207.63 1569.11 214.07H1614.05Z" fill="white"/>
<defs>
<clipPath id="clip0">
<rect width="400" height="400" fill="white"/>
</clipPath>
</defs>
</svg>
